<svg width="40" height="40" viewBox="0 0 40 40" fill="none" xmlns="http://www.w3.org/2000/svg">
<path d="M20.1663 29.7084C20.6108 29.7084 20.9858 29.5556 21.2913 29.25C21.5969 28.9445 21.7497 28.5695 21.7497 28.125C21.7497 27.6806 21.5969 27.3056 21.2913 27C20.9858 26.6945 20.6108 26.5417 20.1663 26.5417C19.7219 26.5417 19.3469 26.6945 19.0413 27C18.7358 27.3056 18.583 27.6806 18.583 28.125C18.583 28.5695 18.7358 28.9445 19.0413 29.25C19.3469 29.5556 19.7219 29.7084 20.1663 29.7084ZM18.708 23.625H21.1663C21.1663 22.9028 21.2566 22.2431 21.4372 21.6459C21.6177 21.0487 22.1802 20.3612 23.1247 19.5834C23.9858 18.8612 24.5969 18.1528 24.958 17.4584C25.3191 16.7639 25.4997 16 25.4997 15.1667C25.4997 13.6945 25.0205 12.5139 24.0622 11.625C23.1038 10.7362 21.833 10.2917 20.2497 10.2917C18.8886 10.2917 17.6872 10.632 16.6455 11.3125C15.6038 11.9931 14.8469 12.9306 14.3747 14.125L16.583 14.9584C16.8886 14.1806 17.3469 13.5764 17.958 13.1459C18.5691 12.7153 19.2913 12.5 20.1247 12.5C21.0691 12.5 21.833 12.757 22.4163 13.2709C22.9997 13.7848 23.2913 14.4445 23.2913 15.25C23.2913 15.8612 23.1108 16.4375 22.7497 16.9792C22.3886 17.5209 21.8608 18.0834 21.1663 18.6667C20.333 19.3889 19.715 20.1042 19.3122 20.8125C18.9094 21.5209 18.708 22.4584 18.708 23.625ZM19.9997 36.6667C17.7219 36.6667 15.5691 36.2292 13.5413 35.3542C11.5136 34.4792 9.74273 33.2848 8.22884 31.7709C6.71495 30.257 5.52051 28.4862 4.64551 26.4584C3.77051 24.4306 3.33301 22.2778 3.33301 20C3.33301 17.6945 3.77051 15.5278 4.64551 13.5C5.52051 11.4723 6.71495 9.70837 8.22884 8.20837C9.74273 6.70837 11.5136 5.52087 13.5413 4.64587C15.5691 3.77087 17.7219 3.33337 19.9997 3.33337C22.3052 3.33337 24.4719 3.77087 26.4997 4.64587C28.5275 5.52087 30.2913 6.70837 31.7913 8.20837C33.2913 9.70837 34.4788 11.4723 35.3538 13.5C36.2288 15.5278 36.6663 17.6945 36.6663 20C36.6663 22.2778 36.2288 24.4306 35.3538 26.4584C34.4788 28.4862 33.2913 30.257 31.7913 31.7709C30.2913 33.2848 28.5275 34.4792 26.4997 35.3542C24.4719 36.2292 22.3052 36.6667 19.9997 36.6667ZM19.9997 34.1667C23.9441 34.1667 27.2913 32.7848 30.0413 30.0209C32.7913 27.257 34.1663 23.9167 34.1663 20C34.1663 16.0556 32.7913 12.7084 30.0413 9.95837C27.2913 7.20837 23.9441 5.83337 19.9997 5.83337C16.083 5.83337 12.7427 7.20837 9.97884 9.95837C7.21495 12.7084 5.83301 16.0556 5.83301 20C5.83301 23.9167 7.21495 27.257 9.97884 30.0209C12.7427 32.7848 16.083 34.1667 19.9997 34.1667Z" fill="#DEDEDE"/>
</svg>
