<svg width="25" height="25" viewBox="0 0 25 25" fill="none" xmlns="http://www.w3.org/2000/svg">
<path d="M12.4844 19.9306C13.9948 19.9306 15.2604 19.3634 16.2812 18.2292C17.3021 17.0949 17.8125 15.6887 17.8125 14.0104C17.8125 12.3322 17.3021 10.9317 16.2812 9.80903C15.2604 8.68634 13.9948 8.125 12.4844 8.125C10.974 8.125 9.71354 8.68634 8.70312 9.80903C7.69271 10.9317 7.1875 12.3322 7.1875 14.0104C7.1875 15.6887 7.69271 17.0949 8.70312 18.2292C9.71354 19.3634 10.974 19.9306 12.4844 19.9306ZM12.4844 17.8472C11.4948 17.8472 10.6771 17.4826 10.0312 16.7535C9.38542 16.0243 9.0625 15.11 9.0625 14.0104C9.0625 12.9109 9.38542 12.0023 10.0312 11.2847C10.6771 10.5671 11.4948 10.2083 12.4844 10.2083C13.474 10.2083 14.2969 10.5671 14.9531 11.2847C15.6094 12.0023 15.9375 12.9109 15.9375 14.0104C15.9375 15.11 15.6094 16.0243 14.9531 16.7535C14.2969 17.4826 13.474 17.8472 12.4844 17.8472ZM1.875 25C1.375 25 0.9375 24.7917 0.5625 24.375C0.1875 23.9583 0 23.4722 0 22.9167V5.10417C0 4.57176 0.1875 4.09144 0.5625 3.66319C0.9375 3.23495 1.375 3.02083 1.875 3.02083H6.46875L8.75 0H16.25L18.5312 3.02083H23.125C23.6042 3.02083 24.0365 3.23495 24.4219 3.66319C24.8073 4.09144 25 4.57176 25 5.10417V22.9167C25 23.4722 24.8073 23.9583 24.4219 24.375C24.0365 24.7917 23.6042 25 23.125 25H1.875ZM23.125 22.9167V5.10417H17.6562L15.375 2.08333H9.625L7.34375 5.10417H1.875V22.9167H23.125Z" fill="black"/>
</svg>
