<svg width="30" height="30" viewBox="0 0 30 30" fill="none" xmlns="http://www.w3.org/2000/svg">
<path d="M19.5 13.1251H10.5C10.2937 13.1251 10.125 12.9563 10.125 12.7501V11.25C10.125 11.0438 10.2937 10.875 10.5 10.875H19.5C19.7062 10.875 19.875 11.0438 19.875 11.25V12.7501C19.875 12.9563 19.7062 13.1251 19.5 13.1251ZM20.7188 16.9688V7.03111C20.7188 6.46393 21.1828 5.99988 21.75 5.99988C22.3172 5.99988 22.7812 6.46393 22.7812 7.03111V16.9688C22.7812 17.536 22.3172 18.0001 21.75 18.0001C21.1828 18.0001 20.7188 17.536 20.7188 16.9688ZM24.5625 8.99996H24C23.7938 8.99996 23.625 9.16871 23.625 9.37496V14.625C23.625 14.8312 23.7938 15 24 15H24.5625C25.0782 15 25.5 14.5781 25.5 14.0625V9.93746C25.5 9.42185 25.0782 8.99996 24.5625 8.99996ZM9.2814 16.9688V7.03111C9.2814 6.46393 8.81734 5.99988 8.25017 5.99988C7.683 5.99988 7.21894 6.46393 7.21894 7.03111V16.9688C7.21894 17.536 7.683 18.0001 8.25017 18.0001C8.81734 18.0001 9.2814 17.536 9.2814 16.9688ZM6.00017 8.99996H5.43767C4.92205 8.99996 4.50017 9.42184 4.50017 9.93746V14.0625C4.50017 14.5781 4.92205 15 5.43767 15H6.00017C6.20642 15 6.37517 14.8312 6.37517 14.625V9.37496C6.37517 9.16871 6.20642 8.99996 6.00017 8.99996Z" fill="black"/>
<path d="M3.1567 24.6938C3.14866 24.6978 3.14012 24.701 3.13125 24.7032C3.12271 24.7053 3.11384 24.7065 3.10447 24.7065C3.07584 24.7065 3.05307 24.6988 3.03616 24.6831C3.01959 24.667 3.01138 24.6454 3.01138 24.6181C3.01138 24.5905 3.01959 24.5689 3.03616 24.5532C3.05307 24.5371 3.07584 24.5291 3.10447 24.5291C3.11384 24.5291 3.12271 24.5302 3.13125 24.5324C3.14012 24.5347 3.14866 24.5378 3.1567 24.5418V24.5773C3.14866 24.5719 3.14063 24.5679 3.13259 24.5652C3.12489 24.5625 3.11669 24.5612 3.10781 24.5612C3.09208 24.5612 3.07969 24.5664 3.07031 24.5766C3.06127 24.5865 3.05692 24.6004 3.05692 24.6181C3.05692 24.6355 3.06127 24.6494 3.07031 24.6596C3.07969 24.6695 3.09208 24.6744 3.10781 24.6744C3.11669 24.6744 3.12489 24.6734 3.13259 24.671C3.14063 24.6683 3.14866 24.6642 3.1567 24.6583V24.6938Z" fill="black"/>
<path d="M3.2871 24.6101C3.28342 24.6084 3.27991 24.6071 3.27639 24.6061C3.27271 24.6052 3.26919 24.6047 3.26568 24.6047C3.25496 24.6047 3.24659 24.6084 3.2409 24.6154C3.23554 24.6221 3.23286 24.6318 3.23286 24.6442V24.7032H3.19135V24.5752H3.23286V24.596C3.23772 24.5876 3.24358 24.5816 3.25027 24.5779C3.2573 24.5739 3.26568 24.5719 3.27505 24.5719H3.27974C3.28141 24.5719 3.28376 24.5722 3.28643 24.5726L3.2871 24.6101Z" fill="black"/>
<path d="M3.43493 24.6389V24.6502H3.33917C3.34051 24.6601 3.34403 24.6675 3.34988 24.6723C3.35558 24.6769 3.36395 24.679 3.37466 24.679C3.38353 24.679 3.39241 24.678 3.40145 24.6757C3.41032 24.673 3.41953 24.669 3.4289 24.6636V24.6951C3.41953 24.6991 3.40982 24.7021 3.40011 24.7038C3.39023 24.7055 3.38069 24.7065 3.37131 24.7065C3.34804 24.7065 3.32996 24.7008 3.31707 24.6891C3.30401 24.677 3.29765 24.6603 3.29765 24.6389C3.29765 24.6184 3.30385 24.602 3.3164 24.59C3.32929 24.5779 3.3467 24.5719 3.36864 24.5719C3.38873 24.5719 3.4048 24.5779 3.41685 24.59C3.42891 24.602 3.43493 24.6184 3.43493 24.6389ZM3.39341 24.6248C3.39341 24.6173 3.3909 24.6112 3.38605 24.6067C3.38153 24.6019 3.37567 24.5994 3.36864 24.5994C3.3606 24.5994 3.35407 24.6017 3.34922 24.6061C3.34419 24.6106 3.34118 24.6168 3.33984 24.6248L3.39341 24.6248Z" fill="black"/>
<path d="M3.52349 24.6456C3.51495 24.6456 3.50842 24.6472 3.50407 24.6502C3.50005 24.6529 3.49804 24.6573 3.49804 24.663C3.49804 24.668 3.49955 24.672 3.50273 24.675C3.50625 24.6777 3.5111 24.679 3.51746 24.679C3.525 24.679 3.53153 24.6764 3.53688 24.671C3.54224 24.6657 3.54492 24.6588 3.54492 24.6502V24.6456H3.52349ZM3.58644 24.6302V24.7031H3.54492V24.6844C3.53956 24.6921 3.5332 24.6976 3.52617 24.7011C3.51947 24.7047 3.5111 24.7065 3.50139 24.7065C3.488 24.7065 3.47695 24.7028 3.46858 24.6951C3.46055 24.6871 3.45653 24.677 3.45653 24.665C3.45653 24.6499 3.46155 24.6387 3.47193 24.6315C3.48214 24.6245 3.49838 24.6208 3.52081 24.6208H3.54492V24.6181C3.54492 24.6114 3.54224 24.6067 3.53688 24.604C3.53186 24.601 3.52416 24.5994 3.51345 24.5994C3.50441 24.5994 3.4962 24.6004 3.48867 24.602C3.48097 24.6039 3.47411 24.6064 3.46791 24.6094V24.5786C3.47628 24.5764 3.48499 24.5749 3.49403 24.5739C3.5029 24.5726 3.51177 24.5719 3.52081 24.5719C3.54392 24.5719 3.56066 24.5766 3.57104 24.586C3.58125 24.595 3.58644 24.6097 3.58644 24.6302Z" fill="black"/>
<path d="M3.66897 24.5385V24.5753H3.71116V24.6041H3.66897V24.659C3.66897 24.6648 3.66997 24.6689 3.67232 24.671C3.675 24.6729 3.67985 24.6737 3.68705 24.6737H3.70781V24.7032H3.67299C3.65641 24.7032 3.64486 24.6998 3.63817 24.6931C3.63147 24.6864 3.62812 24.6751 3.62812 24.659V24.6041H3.60803V24.5753H3.62812V24.5385L3.66897 24.5385Z" fill="black"/>
<path d="M3.86401 24.6389V24.6502H3.76825C3.76959 24.6601 3.7731 24.6675 3.77896 24.6723C3.78465 24.6769 3.79302 24.679 3.80374 24.679C3.81261 24.679 3.82148 24.678 3.83052 24.6757C3.8394 24.673 3.8486 24.669 3.85798 24.6636V24.6951C3.8486 24.6991 3.83889 24.7021 3.82918 24.7038C3.81931 24.7055 3.80977 24.7065 3.80039 24.7065C3.77712 24.7065 3.75904 24.7008 3.74615 24.6891C3.73309 24.677 3.72673 24.6603 3.72673 24.6389C3.72673 24.6184 3.73292 24.602 3.74548 24.59C3.75837 24.5779 3.77578 24.5719 3.79771 24.5719C3.8178 24.5719 3.83388 24.5779 3.84593 24.59C3.85798 24.602 3.86401 24.6184 3.86401 24.6389ZM3.82249 24.6248C3.82249 24.6173 3.81998 24.6112 3.81512 24.6067C3.8106 24.6019 3.80474 24.5994 3.79771 24.5994C3.78968 24.5994 3.78315 24.6017 3.77829 24.6061C3.77327 24.6106 3.77026 24.6168 3.76892 24.6248L3.82249 24.6248Z" fill="black"/>
<path d="M3.98286 24.594V24.525H4.02371V24.7031H3.98286V24.6844C3.977 24.6921 3.9708 24.6976 3.96411 24.7011C3.95741 24.7047 3.94954 24.7065 3.94067 24.7065C3.9246 24.7065 3.91137 24.7003 3.90116 24.6877C3.89128 24.6754 3.88643 24.659 3.88643 24.6389C3.88643 24.6193 3.89128 24.6032 3.90116 24.5906C3.91137 24.5783 3.9246 24.5719 3.94067 24.5719C3.94904 24.5719 3.95674 24.5737 3.96344 24.5773C3.97047 24.5809 3.977 24.5865 3.98286 24.594ZM3.9554 24.677C3.96428 24.677 3.97097 24.674 3.97549 24.6677C3.98035 24.661 3.98286 24.6514 3.98286 24.6389C3.98286 24.6268 3.98035 24.6178 3.97549 24.6114C3.97097 24.6047 3.96428 24.6014 3.9554 24.6014C3.94686 24.6014 3.94017 24.6047 3.93531 24.6114C3.93079 24.6178 3.92862 24.6268 3.92862 24.6389C3.92862 24.6514 3.93079 24.661 3.93531 24.6677C3.94017 24.674 3.94686 24.677 3.9554 24.677Z" fill="black"/>
<path d="M4.21271 24.677C4.22159 24.677 4.22828 24.674 4.2328 24.6677C4.23766 24.661 4.24017 24.6514 4.24017 24.6389C4.24017 24.6268 4.23766 24.6178 4.2328 24.6114C4.22828 24.6047 4.22159 24.6014 4.21271 24.6014C4.20417 24.6014 4.19748 24.6047 4.19262 24.6114C4.1881 24.6178 4.18593 24.6268 4.18593 24.6389C4.18593 24.6514 4.1881 24.661 4.19262 24.6677C4.19748 24.674 4.20417 24.677 4.21271 24.677ZM4.18593 24.594C4.19128 24.5865 4.19731 24.5809 4.20401 24.5773C4.21104 24.5737 4.21907 24.5719 4.22811 24.5719C4.24368 24.5719 4.25657 24.5783 4.26695 24.5906C4.27717 24.6032 4.28236 24.6193 4.28236 24.6389C4.28236 24.659 4.27717 24.6754 4.26695 24.6877C4.25657 24.7003 4.24368 24.7065 4.22811 24.7065C4.21907 24.7065 4.21104 24.7047 4.20401 24.7011C4.19731 24.6976 4.19128 24.6921 4.18593 24.6844V24.7031H4.14441V24.525H4.18593V24.594Z" fill="black"/>
<path d="M4.29559 24.5753H4.33644L4.37126 24.6617L4.40073 24.5753H4.44157L4.38733 24.7153C4.38198 24.7295 4.37562 24.7395 4.36858 24.7454C4.36139 24.7511 4.35184 24.7541 4.33979 24.7541H4.31635V24.7267H4.32908C4.33611 24.7267 4.3413 24.7255 4.34448 24.7233C4.34749 24.721 4.35 24.7173 4.35184 24.7119L4.35318 24.7079L4.29559 24.5753Z" fill="black"/>
<path d="M4.54671 24.5752H4.58823V24.7032H4.54671V24.5752ZM4.54671 24.525H4.58823V24.5585H4.54671V24.525Z" fill="black"/>
<path d="M4.73069 24.5793V24.6121C4.72533 24.6086 4.71964 24.6059 4.71395 24.604C4.70809 24.6024 4.70223 24.6014 4.69654 24.6014C4.68482 24.6014 4.67595 24.6047 4.66975 24.6114C4.66339 24.6181 4.66038 24.6273 4.66038 24.6389C4.66038 24.6509 4.66339 24.6603 4.66975 24.667C4.67595 24.6737 4.68482 24.677 4.69654 24.677C4.70273 24.677 4.70876 24.6762 4.71462 24.6744C4.72031 24.6727 4.72567 24.6697 4.73069 24.6656V24.6991C4.72433 24.7018 4.71797 24.7035 4.71127 24.7045C4.70458 24.7058 4.69788 24.7065 4.69118 24.7065C4.66791 24.7065 4.64983 24.7008 4.63694 24.6891C4.62388 24.677 4.61752 24.6603 4.61752 24.6389C4.61752 24.6179 4.62388 24.6017 4.63694 24.59C4.64983 24.5779 4.66791 24.5719 4.69118 24.5719C4.69788 24.5719 4.70458 24.5726 4.71127 24.5739C4.71797 24.5749 4.72433 24.5766 4.73069 24.5793Z" fill="black"/>
<path d="M4.82678 24.6014C4.81774 24.6014 4.81088 24.6047 4.80602 24.6114C4.8015 24.6178 4.79933 24.6268 4.79933 24.6389C4.79933 24.6514 4.8015 24.661 4.80602 24.6677C4.81088 24.674 4.81774 24.677 4.82678 24.677C4.83565 24.677 4.84252 24.674 4.84754 24.6677C4.8524 24.661 4.85491 24.6514 4.85491 24.6389C4.85491 24.6268 4.8524 24.6178 4.84754 24.6114C4.84252 24.6047 4.83565 24.6014 4.82678 24.6014ZM4.82678 24.5719C4.84905 24.5719 4.86629 24.5779 4.87834 24.59C4.89073 24.6017 4.89709 24.6179 4.89709 24.6389C4.89709 24.6603 4.89073 24.677 4.87834 24.6891C4.86629 24.7008 4.84905 24.7065 4.82678 24.7065C4.80485 24.7065 4.78761 24.7008 4.77522 24.6891C4.76266 24.677 4.75647 24.6603 4.75647 24.6389C4.75647 24.6179 4.76266 24.6017 4.77522 24.59C4.78761 24.5779 4.80485 24.5719 4.82678 24.5719Z" fill="black"/>
<path d="M5.05614 24.6248V24.7031H5.01462V24.6435C5.01462 24.6325 5.01428 24.6248 5.01395 24.6208C5.01345 24.6164 5.01261 24.6132 5.01127 24.6114C5.00993 24.6087 5.00759 24.6067 5.00457 24.6054C5.0019 24.6037 4.99888 24.6027 4.99587 24.6027C4.98683 24.6027 4.97996 24.606 4.97511 24.6127C4.97059 24.6194 4.96841 24.6287 4.96841 24.6402V24.7032H4.9269V24.5752H4.96841V24.594C4.9741 24.5865 4.98063 24.5809 4.98783 24.5773C4.99486 24.5737 5.00256 24.5719 5.0106 24.5719C5.02533 24.5719 5.03638 24.5766 5.04408 24.586C5.05212 24.595 5.05614 24.6079 5.05614 24.6248Z" fill="black"/>
<path d="M5.17818 24.525V24.5518H5.15608C5.15022 24.5518 5.14604 24.553 5.14336 24.5552C5.14101 24.5575 5.14001 24.561 5.14001 24.5659V24.5752H5.1755V24.604H5.14001V24.7031H5.09916V24.604H5.07907V24.5752H5.09916V24.5659C5.09916 24.5521 5.10284 24.5418 5.11054 24.5351C5.11858 24.5284 5.1308 24.525 5.14737 24.525L5.17818 24.525Z" fill="black"/>
<path d="M5.19576 24.5752H5.23727V24.7032H5.19576V24.5752ZM5.19576 24.525H5.23727V24.5585H5.19576V24.525Z" fill="black"/>
<path d="M5.40402 24.6389V24.6502H5.30826C5.3096 24.6601 5.31311 24.6675 5.31897 24.6723C5.32466 24.6769 5.33303 24.679 5.34375 24.679C5.35262 24.679 5.36149 24.678 5.37053 24.6757C5.37941 24.673 5.38861 24.669 5.39799 24.6636V24.6951C5.38861 24.6991 5.3789 24.7021 5.36919 24.7038C5.35932 24.7055 5.34977 24.7065 5.3404 24.7065C5.31713 24.7065 5.29905 24.7008 5.28616 24.6891C5.2731 24.677 5.26674 24.6603 5.26674 24.6389C5.26674 24.6184 5.27293 24.602 5.28549 24.59C5.29838 24.5779 5.31579 24.5719 5.33772 24.5719C5.35781 24.5719 5.37388 24.5779 5.38594 24.59C5.39799 24.602 5.40402 24.6184 5.40402 24.6389ZM5.3625 24.6248C5.3625 24.6173 5.35999 24.6112 5.35513 24.6067C5.35061 24.6019 5.34475 24.5994 5.33772 24.5994C5.32969 24.5994 5.32316 24.6017 5.3183 24.6061C5.31328 24.6106 5.31027 24.6168 5.30893 24.6248L5.3625 24.6248Z" fill="black"/>
<path d="M5.43498 24.525H5.4765V24.7031H5.43498V24.525Z" fill="black"/>
<path d="M5.60307 24.594V24.525H5.64391V24.7031H5.60307V24.6844C5.59721 24.6921 5.59101 24.6976 5.58432 24.7011C5.57762 24.7047 5.56975 24.7065 5.56088 24.7065C5.54481 24.7065 5.53158 24.7003 5.52137 24.6877C5.51149 24.6754 5.50664 24.659 5.50664 24.6389C5.50664 24.6193 5.51149 24.6032 5.52137 24.5906C5.53158 24.5783 5.54481 24.5719 5.56088 24.5719C5.56925 24.5719 5.57695 24.5737 5.58365 24.5773C5.59068 24.5809 5.59721 24.5865 5.60307 24.594ZM5.57561 24.677C5.58448 24.677 5.59118 24.674 5.5957 24.6677C5.60056 24.661 5.60307 24.6514 5.60307 24.6389C5.60307 24.6268 5.60056 24.6178 5.5957 24.6114C5.59118 24.6047 5.58448 24.6014 5.57561 24.6014C5.56707 24.6014 5.56038 24.6047 5.55552 24.6114C5.551 24.6178 5.54883 24.6268 5.54883 24.6389C5.54883 24.6514 5.551 24.661 5.55552 24.6677C5.56038 24.674 5.56707 24.677 5.57561 24.677Z" fill="black"/>
<path d="M3.10379 24.7594V24.7862H3.08169C3.07583 24.7862 3.07165 24.7874 3.06897 24.7895C3.06663 24.7919 3.06562 24.7954 3.06562 24.8002V24.8096H3.10111V24.8384H3.06562V24.9375H3.02477V24.8384H3.00468V24.8096H3.02477V24.8002C3.02477 24.7865 3.02846 24.7761 3.03616 24.7694C3.04419 24.7627 3.05641 24.7594 3.07299 24.7594L3.10379 24.7594Z" fill="black"/>
<path d="M3.21713 24.8444C3.21344 24.8428 3.20993 24.8414 3.20641 24.8404C3.20273 24.8396 3.19921 24.8391 3.1957 24.8391C3.18498 24.8391 3.17661 24.8428 3.17092 24.8498C3.16556 24.8565 3.16289 24.8662 3.16289 24.8786V24.9375H3.12137V24.8096H3.16289V24.8304C3.16774 24.822 3.1736 24.816 3.1803 24.8123C3.18733 24.8083 3.1957 24.8063 3.20507 24.8063H3.20976C3.21144 24.8063 3.21378 24.8066 3.21646 24.8069L3.21713 24.8444Z" fill="black"/>
<path d="M3.29799 24.8357C3.28895 24.8357 3.28208 24.8391 3.27723 24.8458C3.27271 24.8521 3.27053 24.8612 3.27053 24.8732C3.27053 24.8858 3.27271 24.8953 3.27723 24.902C3.28208 24.9084 3.28895 24.9114 3.29799 24.9114C3.30686 24.9114 3.31372 24.9084 3.31875 24.902C3.3236 24.8953 3.32611 24.8858 3.32611 24.8732C3.32611 24.8612 3.3236 24.8521 3.31875 24.8458C3.31372 24.8391 3.30686 24.8357 3.29799 24.8357ZM3.29799 24.8063C3.32025 24.8063 3.3375 24.8123 3.34955 24.8244C3.36194 24.8361 3.3683 24.8523 3.3683 24.8732C3.3683 24.8947 3.36194 24.9114 3.34955 24.9235C3.3375 24.9352 3.32025 24.9409 3.29799 24.9409C3.27606 24.9409 3.25881 24.9352 3.24643 24.9235C3.23387 24.9114 3.22768 24.8947 3.22768 24.8732C3.22768 24.8523 3.23387 24.8361 3.24643 24.8244C3.25881 24.8123 3.27606 24.8063 3.29799 24.8063Z" fill="black"/>
<path d="M3.51713 24.8304C3.52199 24.8228 3.52801 24.817 3.53521 24.813C3.54224 24.8086 3.55028 24.8063 3.55932 24.8063C3.57355 24.8063 3.58443 24.811 3.59213 24.8203C3.60017 24.8294 3.60418 24.8423 3.60418 24.8592V24.9375H3.56267V24.8706C3.563 24.8697 3.56334 24.8689 3.56334 24.8679V24.8632C3.56334 24.8538 3.562 24.8471 3.55932 24.8431C3.55664 24.8391 3.55229 24.8371 3.54659 24.8371C3.53856 24.8371 3.5322 24.8404 3.52784 24.8471C3.52383 24.8535 3.52182 24.8625 3.52182 24.8746V24.9375H3.4803V24.8706C3.4803 24.8563 3.47896 24.8471 3.47628 24.8431C3.47394 24.8391 3.46975 24.8371 3.46356 24.8371C3.45586 24.8371 3.44983 24.8404 3.44548 24.8471C3.44146 24.8535 3.43945 24.8625 3.43945 24.8746V24.9375H3.39793V24.8096H3.43945V24.8284C3.44431 24.8208 3.44983 24.8153 3.45619 24.8116C3.46289 24.8081 3.47025 24.8063 3.47829 24.8063C3.48716 24.8063 3.49503 24.8086 3.50173 24.813C3.50842 24.817 3.51345 24.8228 3.51713 24.8304Z" fill="black"/>
<path d="M3.76875 24.7728V24.8097H3.81093V24.8385H3.76875V24.8934C3.76875 24.8992 3.76975 24.9032 3.7721 24.9054C3.77477 24.9073 3.77963 24.9081 3.78683 24.9081H3.80759V24.9376H3.77277C3.75619 24.9376 3.74464 24.9342 3.73794 24.9275C3.73125 24.9208 3.7279 24.9094 3.7279 24.8934V24.8385H3.70781V24.8097H3.7279V24.7728L3.76875 24.7728Z" fill="black"/>
<path d="M3.96512 24.8592V24.9375H3.9236V24.8779C3.9236 24.8669 3.92326 24.8592 3.92293 24.8552C3.92243 24.8508 3.92159 24.8476 3.92025 24.8458C3.91891 24.8431 3.91657 24.8411 3.91356 24.8398C3.91088 24.8381 3.90786 24.8371 3.90485 24.8371C3.89581 24.8371 3.88895 24.8404 3.88409 24.8471C3.87957 24.8538 3.87739 24.863 3.87739 24.8746V24.9375H3.83588V24.7594H3.87739V24.8284C3.88309 24.8208 3.88962 24.8153 3.89681 24.8116C3.90384 24.8081 3.91155 24.8063 3.91958 24.8063C3.93431 24.8063 3.94536 24.811 3.95306 24.8203C3.9611 24.8294 3.96512 24.8423 3.96512 24.8592Z" fill="black"/>
<path d="M4.13052 24.8732V24.8846H4.03476C4.0361 24.8945 4.03961 24.9019 4.04547 24.9067C4.05116 24.9112 4.05953 24.9134 4.07025 24.9134C4.07912 24.9134 4.08799 24.9124 4.09703 24.9101C4.10591 24.9074 4.11511 24.9034 4.12449 24.898V24.9295C4.11511 24.9335 4.1054 24.9365 4.09569 24.9382C4.08582 24.9399 4.07628 24.9409 4.0669 24.9409C4.04363 24.9409 4.02555 24.9352 4.01266 24.9235C3.9996 24.9114 3.99324 24.8947 3.99324 24.8732C3.99324 24.8528 3.99943 24.8364 4.01199 24.8244C4.02488 24.8123 4.04229 24.8063 4.06422 24.8063C4.08431 24.8063 4.10039 24.8123 4.11244 24.8244C4.12449 24.8364 4.13052 24.8528 4.13052 24.8732ZM4.089 24.8592C4.089 24.8516 4.08649 24.8456 4.08163 24.8411C4.07711 24.8362 4.07125 24.8337 4.06422 24.8337C4.05619 24.8337 4.04966 24.8361 4.0448 24.8404C4.03978 24.8449 4.03677 24.8511 4.03543 24.8592L4.089 24.8592Z" fill="black"/>
<path d="M4.24519 24.7668H4.29474L4.35635 24.884V24.7668H4.39854V24.9376H4.34899L4.28738 24.8204V24.9376H4.24519V24.7668Z" fill="black"/>
<path d="M4.50033 24.8357C4.49129 24.8357 4.48443 24.8391 4.47958 24.8458C4.47506 24.8521 4.47288 24.8612 4.47288 24.8732C4.47288 24.8858 4.47506 24.8953 4.47958 24.902C4.48443 24.9084 4.49129 24.9114 4.50033 24.9114C4.50921 24.9114 4.51607 24.9084 4.52109 24.902C4.52595 24.8953 4.52846 24.8858 4.52846 24.8732C4.52846 24.8612 4.52595 24.8521 4.52109 24.8458C4.51607 24.8391 4.50921 24.8357 4.50033 24.8357ZM4.50033 24.8063C4.5226 24.8063 4.53984 24.8123 4.5519 24.8244C4.56428 24.8361 4.57065 24.8523 4.57065 24.8732C4.57065 24.8947 4.56428 24.9114 4.5519 24.9235C4.53984 24.9352 4.5226 24.9409 4.50033 24.9409C4.4784 24.9409 4.46116 24.9352 4.44877 24.9235C4.43622 24.9114 4.43002 24.8947 4.43002 24.8732C4.43002 24.8523 4.43622 24.8361 4.44877 24.8244C4.46116 24.8123 4.47841 24.8063 4.50033 24.8063Z" fill="black"/>
<path d="M4.59911 24.8874V24.8097H4.64062V24.8224V24.8485V24.8693C4.64062 24.8797 4.64079 24.8872 4.64129 24.8921C4.64163 24.8966 4.64263 24.8998 4.64397 24.9014C4.64565 24.9041 4.64799 24.9065 4.65067 24.9081C4.65335 24.9095 4.65636 24.9101 4.66004 24.9101C4.66841 24.9101 4.67511 24.9068 4.68013 24.9001C4.68499 24.8934 4.6875 24.8844 4.6875 24.8726V24.8097H4.72835V24.9376H4.6875V24.9188C4.68114 24.9265 4.67444 24.9321 4.66741 24.9356C4.66071 24.9391 4.65301 24.9409 4.64464 24.9409C4.62991 24.9409 4.61853 24.9366 4.61049 24.9276C4.60279 24.9182 4.59911 24.9048 4.59911 24.8874Z" fill="black"/>
<path d="M4.89659 24.8592V24.9375H4.85507V24.8779C4.85507 24.8669 4.85474 24.8592 4.8544 24.8552C4.8539 24.8508 4.85306 24.8476 4.85172 24.8458C4.85038 24.8431 4.84804 24.8411 4.84503 24.8398C4.84235 24.8381 4.83934 24.8371 4.83632 24.8371C4.82728 24.8371 4.82042 24.8404 4.81556 24.8471C4.81104 24.8538 4.80887 24.863 4.80887 24.8746V24.9375H4.76735V24.8096H4.80887V24.8284C4.81456 24.8208 4.82109 24.8153 4.82829 24.8116C4.83532 24.8081 4.84302 24.8063 4.85105 24.8063C4.86579 24.8063 4.87684 24.811 4.88454 24.8203C4.89257 24.8294 4.89659 24.8423 4.89659 24.8592Z" fill="black"/>
<path d="M5.01779 24.7668H5.09078C5.11255 24.7668 5.12929 24.7719 5.14101 24.7816C5.15256 24.791 5.15842 24.8047 5.15842 24.8224C5.15842 24.8403 5.15256 24.8542 5.14101 24.8639C5.12929 24.8733 5.11255 24.878 5.09078 24.878H5.06199V24.9376H5.01779L5.01779 24.7668ZM5.06199 24.799V24.8465H5.08609C5.09446 24.8465 5.10099 24.8445 5.10551 24.8405C5.11037 24.8362 5.11288 24.8301 5.11288 24.8224C5.11288 24.8149 5.11037 24.809 5.10551 24.805C5.10099 24.801 5.09446 24.799 5.08609 24.799L5.06199 24.799Z" fill="black"/>
<path d="M5.2833 24.8444C5.27962 24.8428 5.27611 24.8414 5.27259 24.8404C5.26891 24.8396 5.26539 24.8391 5.26188 24.8391C5.25116 24.8391 5.24279 24.8428 5.2371 24.8498C5.23174 24.8565 5.22906 24.8662 5.22906 24.8786V24.9375H5.18755V24.8096H5.22906V24.8304C5.23392 24.822 5.23978 24.816 5.24647 24.8123C5.25351 24.8083 5.26188 24.8063 5.27125 24.8063H5.27594C5.27761 24.8063 5.27996 24.8066 5.28264 24.8069L5.2833 24.8444Z" fill="black"/>
<path d="M5.364 24.8357C5.35496 24.8357 5.34809 24.8391 5.34324 24.8458C5.33872 24.8521 5.33654 24.8612 5.33654 24.8732C5.33654 24.8858 5.33872 24.8953 5.34324 24.902C5.34809 24.9084 5.35496 24.9114 5.364 24.9114C5.37287 24.9114 5.37973 24.9084 5.38476 24.902C5.38961 24.8953 5.39212 24.8858 5.39212 24.8732C5.39212 24.8612 5.38961 24.8521 5.38476 24.8458C5.37973 24.8391 5.37287 24.8357 5.364 24.8357ZM5.364 24.8063C5.38626 24.8063 5.40351 24.8123 5.41556 24.8244C5.42795 24.8361 5.43431 24.8523 5.43431 24.8732C5.43431 24.8947 5.42795 24.9114 5.41556 24.9235C5.40351 24.9352 5.38626 24.9409 5.364 24.9409C5.34207 24.9409 5.32482 24.9352 5.31244 24.9235C5.29988 24.9114 5.29369 24.8947 5.29369 24.8732C5.29369 24.8523 5.29988 24.8361 5.31244 24.8244C5.32482 24.8123 5.34207 24.8063 5.364 24.8063Z" fill="black"/>
<path d="M5.46412 24.8096H5.50563V24.9355C5.50563 24.9524 5.50128 24.9653 5.49291 24.9744C5.48488 24.9837 5.47299 24.9884 5.45742 24.9884H5.43666V24.961H5.44403C5.45156 24.961 5.45675 24.9591 5.45943 24.9556C5.46244 24.9524 5.46412 24.9457 5.46412 24.9355L5.46412 24.8096ZM5.46412 24.7594H5.50563V24.7929H5.46412V24.7594Z" fill="black"/>
<path d="M5.67237 24.8732V24.8846H5.57661C5.57795 24.8945 5.58147 24.9019 5.58733 24.9067C5.59302 24.9112 5.60139 24.9134 5.6121 24.9134C5.62098 24.9134 5.62985 24.9124 5.63889 24.9101C5.64776 24.9074 5.65697 24.9034 5.66634 24.898V24.9295C5.65697 24.9335 5.64726 24.9365 5.63755 24.9382C5.62767 24.9399 5.61813 24.9409 5.60875 24.9409C5.58548 24.9409 5.5674 24.9352 5.55451 24.9235C5.54146 24.9114 5.5351 24.8947 5.5351 24.8732C5.5351 24.8528 5.54129 24.8364 5.55385 24.8244C5.56674 24.8123 5.58415 24.8063 5.60608 24.8063C5.62617 24.8063 5.64224 24.8123 5.65429 24.8244C5.66635 24.8364 5.67237 24.8528 5.67237 24.8732ZM5.63085 24.8592C5.63085 24.8516 5.62834 24.8456 5.62349 24.8411C5.61897 24.8362 5.61311 24.8337 5.60608 24.8337C5.59804 24.8337 5.59151 24.8361 5.58666 24.8404C5.58164 24.8449 5.57862 24.8511 5.57728 24.8592L5.63085 24.8592Z" fill="black"/>
<path d="M5.80714 24.8136V24.8465C5.80178 24.8429 5.79609 24.8403 5.7904 24.8384C5.78454 24.8367 5.77868 24.8357 5.77299 24.8357C5.76127 24.8357 5.75239 24.8391 5.7462 24.8458C5.73984 24.8525 5.73683 24.8617 5.73683 24.8732C5.73683 24.8853 5.73984 24.8947 5.7462 24.9014C5.75239 24.9081 5.76127 24.9114 5.77299 24.9114C5.77918 24.9114 5.78521 24.9106 5.79107 24.9087C5.79676 24.9071 5.80212 24.904 5.80714 24.9V24.9335C5.80078 24.9362 5.79441 24.9379 5.78772 24.9389C5.78102 24.9402 5.77433 24.9409 5.76763 24.9409C5.74436 24.9409 5.72628 24.9352 5.71339 24.9235C5.70033 24.9114 5.69397 24.8947 5.69397 24.8732C5.69397 24.8523 5.70033 24.8361 5.71339 24.8244C5.72628 24.8123 5.74436 24.8063 5.76763 24.8063C5.77433 24.8063 5.78102 24.8069 5.78772 24.8083C5.79441 24.8093 5.80078 24.811 5.80714 24.8136Z" fill="black"/>
<path d="M5.88716 24.7728V24.8097H5.92934V24.8385H5.88716V24.8934C5.88716 24.8992 5.88816 24.9032 5.8905 24.9054C5.89318 24.9073 5.89804 24.9081 5.90524 24.9081H5.92599V24.9376H5.89117C5.8746 24.9376 5.86305 24.9342 5.85635 24.9275C5.84966 24.9208 5.84631 24.9094 5.84631 24.8934V24.8385H5.82622V24.8097H5.84631V24.7728L5.88716 24.7728Z" fill="black"/>
</svg>
