<svg width="25" height="25" viewBox="0 0 25 25" fill="none" xmlns="http://www.w3.org/2000/svg">
<path d="M23.0982 9.29448L21.8098 8.00614L23.1902 6.62577L18.3742 1.80982L16.9939 3.19018L15.6748 1.87117L16.5951 0.920245C17.0654 0.449898 17.6483 0.219836 18.3436 0.230061C19.0389 0.240286 19.6217 0.480573 20.092 0.95092L24.0491 4.90798C24.5194 5.37832 24.7546 5.95603 24.7546 6.6411C24.7546 7.32618 24.5194 7.90389 24.0491 8.37423L23.0982 9.29448ZM8.37423 24.0491C7.90389 24.5194 7.32618 24.7546 6.6411 24.7546C5.95603 24.7546 5.37832 24.5194 4.90798 24.0491L0.521472 19.6626C0.173824 19.3072 0 18.8707 0 18.3531C0 17.8355 0.173824 17.4029 0.521472 17.0552L1.87117 15.7055L3.19018 16.9939L1.80982 18.3742L6.62577 23.1902L8.00614 21.8098L9.29448 23.1288L8.37423 24.0491ZM20.5521 14.6012L23.1595 11.9939L13.0061 1.84049L10.3988 4.44785L20.5521 14.6012ZM11.9632 23.1902L14.6012 20.5521L4.44785 10.3988L1.80982 13.0368L11.9632 23.1902ZM12.2393 15.5828L15.5828 12.2393L12.7607 9.41718L9.41718 12.7607L12.2393 15.5828ZM13.2515 24.4785C12.9052 24.8262 12.4761 25 11.9642 25C11.4523 25 11.0225 24.8262 10.6748 24.4785L0.521472 14.3252C0.173824 13.9789 0 13.5497 0 13.0378C0 12.5259 0.173824 12.0961 0.521472 11.7485L3.12883 9.11043C3.48421 8.76278 3.92071 8.58896 4.43831 8.58896C4.95592 8.58896 5.38855 8.76278 5.7362 9.11043L8.09816 11.4724L11.4724 8.09816L9.11043 5.7362C8.76278 5.3899 8.58896 4.96079 8.58896 4.44886C8.58896 3.93694 8.76278 3.50716 9.11043 3.15951L11.7178 0.521472C12.0732 0.173824 12.5097 0 13.0273 0C13.5449 0 13.9775 0.173824 14.3252 0.521472L24.4785 10.6748C24.8262 11.0302 25 11.4667 25 11.9843C25 12.5019 24.8262 12.9346 24.4785 13.2822L21.8405 15.8896C21.4942 16.2372 21.0651 16.411 20.5532 16.411C20.0412 16.411 19.6115 16.2372 19.2638 15.8896L16.9018 13.5276L13.5276 16.9018L15.8896 19.2638C16.2372 19.6192 16.411 20.0557 16.411 20.5733C16.411 21.0909 16.2372 21.5235 15.8896 21.8712L13.2515 24.4785Z" fill="black"/>
</svg>
