<svg width="25" height="25" viewBox="0 0 25 25" fill="#333" xmlns="http://www.w3.org/2000/svg">
<path d="M12.5 12.474C11.3542 12.474 10.4167 12.1094 9.68751 11.3802C8.95834 10.6511 8.59375 9.71358 8.59375 8.56775C8.59375 7.42192 8.95834 6.48442 9.68751 5.75525C10.4167 5.02608 11.3542 4.6615 12.5 4.6615C13.6458 4.6615 14.5833 5.02608 15.3125 5.75525C16.0417 6.48442 16.4063 7.42192 16.4063 8.56775C16.4063 9.71358 16.0417 10.6511 15.3125 11.3802C14.5833 12.1094 13.6458 12.474 12.5 12.474ZM4.16667 20.8334V18.3855C4.16667 17.7257 4.3316 17.1615 4.66146 16.6927C4.99132 16.224 5.41667 15.8681 5.9375 15.625C7.1007 15.1042 8.21615 14.7136 9.28386 14.4532C10.3516 14.1927 11.4236 14.0625 12.5 14.0625C13.5764 14.0625 14.6441 14.1971 15.7031 14.4662C16.7622 14.7353 17.8733 15.1216 19.0365 15.625C19.5747 15.8681 20.0087 16.224 20.3385 16.6927C20.6684 17.1615 20.8333 17.7257 20.8333 18.3855V20.8334H4.16667ZM5.72917 19.2709H19.2708V18.3855C19.2708 18.1077 19.1884 17.8429 19.0234 17.5912C18.8585 17.3395 18.6545 17.1528 18.4115 17.0313C17.3004 16.4931 16.2847 16.1242 15.3646 15.9245C14.4444 15.7249 13.4896 15.625 12.5 15.625C11.5104 15.625 10.5469 15.7249 9.60938 15.9245C8.67188 16.1242 7.65626 16.4931 6.56251 17.0313C6.31945 17.1528 6.1198 17.3395 5.96355 17.5912C5.8073 17.8429 5.72917 18.1077 5.72917 18.3855V19.2709ZM12.5 10.9115C13.1771 10.9115 13.737 10.6901 14.1797 10.2474C14.6224 9.80473 14.8438 9.24483 14.8438 8.56775C14.8438 7.89067 14.6224 7.33077 14.1797 6.88806C13.737 6.44535 13.1771 6.224 12.5 6.224C11.8229 6.224 11.263 6.44535 10.8203 6.88806C10.3776 7.33077 10.1563 7.89067 10.1563 8.56775C10.1563 9.24483 10.3776 9.80473 10.8203 10.2474C11.263 10.6901 11.8229 10.9115 12.5 10.9115Z" fill="black"/>
</svg>
